<svg xmlns="http://www.w3.org/2000/svg" viewBox="0 0 457.26 464.71"><defs><style>.cls-1{isolation:isolate;}.cls-2{fill:#00a291;}.cls-3{fill:#abd9d4;}.cls-4{fill:#d44c57;}.cls-5{fill:#ff616c;}.cls-29,.cls-34,.cls-6,.cls-9{fill:#fff;}.cls-15,.cls-28,.cls-6,.cls-7{opacity:0.1;}.cls-15,.cls-17,.cls-20,.cls-30,.cls-7{mix-blend-mode:multiply;}.cls-8{fill:#571f23;}.cls-9{opacity:0.2;}.cls-10{fill:#006365;}.cls-11{fill:#ecffde;}.cls-12{fill:#9e8a78;}.cls-13{fill:#7d6d5f;}.cls-14{fill:#d44163;}.cls-16{fill:#bad481;}.cls-17,.cls-30,.cls-34{opacity:0.05;}.cls-18{fill:#ffd54d;}.cls-19{fill:#ffedbd;}.cls-20{opacity:0.15;}.cls-21{fill:#007d70;}.cls-22{fill:#ffb13b;}.cls-23{fill:#fff1c2;}.cls-24{fill:#fff8e0;}.cls-25{fill:#ffe5bd;}.cls-26{fill:#fff3e0;}.cls-27{fill:#502f69;}.cls-31{fill:#feffde;}.cls-32{fill:#eaebc3;}.cls-33{fill:#756659;}</style></defs><title>frutas</title><g class="cls-1"><g id="OBJECTS"><path class="cls-2" d="M37.48,25.26A83.1,83.1,0,0,0,189.41,92.62Z" transform="translate(-24.59 -14.85)"/><path class="cls-3" d="M48,29.92A71.59,71.59,0,1,0,178.9,88Z" transform="translate(-24.59 -14.85)"/><path class="cls-4" d="M51.69,31.56A67.56,67.56,0,0,0,175.21,86.32Z" transform="translate(-24.59 -14.85)"/><path class="cls-5" d="M172.62,85.17,54.28,32.71c-12.15,33.12,2.25,69.93,33.63,83.84S156.23,116.42,172.62,85.17Z" transform="translate(-24.59 -14.85)"/><path class="cls-6" d="M101.64,85.58c15.42,6.83,32.48,6.21,48-.31a2.47,2.47,0,0,0,0-4.54L73,46.74a2.48,2.48,0,0,0-3.35,3.07C75.22,65.68,86.22,78.74,101.64,85.58Z" transform="translate(-24.59 -14.85)"/><path class="cls-7" d="M59.67,49.81h0a2.83,2.83,0,0,1,2.15-3.35l4.4-1a2.83,2.83,0,0,1,3.35,2.15h0A2.82,2.82,0,0,1,67.42,51L63,52A2.83,2.83,0,0,1,59.67,49.81Z" transform="translate(-24.59 -14.85)"/><rect class="cls-8" x="62.74" y="44.88" width="3.75" height="7.7" rx="1.78" transform="translate(73.93 -39.61) rotate(77.74)"/><rect class="cls-9" x="65.64" y="46.94" width="1" height="1.89" rx="0.45" transform="translate(74.32 -41.75) rotate(77.75)"/><path class="cls-7" d="M73,73.24h0a2.83,2.83,0,0,1,.55-3.94l3.59-2.71a2.83,2.83,0,0,1,3.94.55h0a2.82,2.82,0,0,1-.55,3.94l-3.59,2.7A2.81,2.81,0,0,1,73,73.24Z" transform="translate(-24.59 -14.85)"/><rect class="cls-8" x="75.15" y="66.35" width="3.75" height="7.7" rx="1.78" transform="translate(62.01 -48.42) rotate(52.93)"/><rect class="cls-9" x="77.55" y="67.85" width="1" height="1.89" rx="0.45" transform="translate(61.2 -49.81) rotate(52.88)"/><path class="cls-7" d="M98.82,82h0a2.83,2.83,0,0,1,.55-3.94L103,75.36a2.83,2.83,0,0,1,3.94.55h0a2.81,2.81,0,0,1-.55,3.94l-3.59,2.71A2.81,2.81,0,0,1,98.82,82Z" transform="translate(-24.59 -14.85)"/><rect class="cls-8" x="100.98" y="75.11" width="3.75" height="7.7" rx="1.78" transform="translate(79.26 -65.55) rotate(52.93)"/><rect class="cls-9" x="103.38" y="76.62" width="1" height="1.89" rx="0.45" transform="translate(78.52 -66.93) rotate(52.91)"/><path class="cls-7" d="M151.19,91.18h0a2.83,2.83,0,0,1,.55-3.94l3.59-2.71a2.82,2.82,0,0,1,3.94.55h0a2.82,2.82,0,0,1-.55,3.94l-3.59,2.71A2.83,2.83,0,0,1,151.19,91.18Z" transform="translate(-24.59 -14.85)"/><rect class="cls-8" x="153.36" y="84.28" width="3.75" height="7.7" rx="1.78" transform="translate(107.38 -103.71) rotate(52.93)"/><rect class="cls-9" x="155.76" y="85.78" width="1" height="1.89" rx="0.45" transform="translate(106.77 -105.09) rotate(52.96)"/><path class="cls-7" d="M76.56,52.55h0a2.82,2.82,0,0,1,3.86-.95l3.85,2.33a2.81,2.81,0,0,1,1,3.86h0a2.82,2.82,0,0,1-3.86,1l-3.85-2.33A2.82,2.82,0,0,1,76.56,52.55Z" transform="translate(-24.59 -14.85)"/><rect class="cls-8" x="79.02" y="51.32" width="3.75" height="7.7" rx="1.78" transform="translate(145.34 -0.42) rotate(121.12)"/><rect class="cls-9" x="82.07" y="54.66" width="1" height="1.89" rx="0.45" transform="translate(148.27 -1.19) rotate(121.13)"/><path class="cls-7" d="M96.56,65.38h0a2.82,2.82,0,0,1,1.53-3.67L102.24,60a2.83,2.83,0,0,1,3.68,1.53h0a2.82,2.82,0,0,1-1.53,3.67l-4.16,1.72A2.83,2.83,0,0,1,96.56,65.38Z" transform="translate(-24.59 -14.85)"/><path class="cls-8" d="M99.17,61.57h4.14a1.78,1.78,0,0,1,1.78,1.78v.2a1.78,1.78,0,0,1-1.78,1.78H99.17a1.77,1.77,0,0,1-1.77-1.77v-.2a1.78,1.78,0,0,1,1.78-1.78Z" transform="translate(-41.15 28.62) rotate(-22.45)"/><path class="cls-9" d="M101.73,62.76l0-.09a.46.46,0,0,1,.25-.59l.91-.38a.46.46,0,0,1,.59.25l0,.09a.46.46,0,0,1-.25.59l-.91.37A.44.44,0,0,1,101.73,62.76Z" transform="translate(-24.59 -14.85)"/><path class="cls-7" d="M120.36,76.84h0A2.82,2.82,0,0,1,116.84,75l-1.33-4.29a2.82,2.82,0,0,1,1.85-3.52h0A2.81,2.81,0,0,1,120.88,69l1.33,4.3A2.82,2.82,0,0,1,120.36,76.84Z" transform="translate(-24.59 -14.85)"/><path class="cls-8" d="M118.76,68.16h.2a1.77,1.77,0,0,1,1.77,1.77v4.14A1.78,1.78,0,0,1,119,75.85h-.2A1.77,1.77,0,0,1,117,74.08V69.93A1.78,1.78,0,0,1,118.76,68.16Z" transform="translate(-40.6 23.65) rotate(-17.26)"/><path class="cls-9" d="M118.22,71.45l-.09,0a.46.46,0,0,1-.57-.3l-.29-.94a.46.46,0,0,1,.3-.57l.09,0a.44.44,0,0,1,.56.29l.3,1A.45.45,0,0,1,118.22,71.45Z" transform="translate(-24.59 -14.85)"/><path class="cls-7" d="M62.21,72.43h0a3,3,0,0,1-2.72-3.31L60,64.3a3,3,0,0,1,3.3-2.71h0A3,3,0,0,1,66,64.89l-.47,4.82A3,3,0,0,1,62.21,72.43Z" transform="translate(-24.59 -14.85)"/><rect class="cls-8" x="60.72" y="62.87" width="4.03" height="8.28" rx="1.91" transform="translate(-17.84 -20.59) rotate(5.53)"/><rect class="cls-9" x="61.83" y="64.16" width="1.08" height="2.03" rx="0.49" transform="translate(-18.03 -20.55) rotate(5.52)"/><path class="cls-7" d="M88.71,87.62h0a3,3,0,0,1-3.31-2.71l-.47-4.82a3,3,0,0,1,2.71-3.31h0A3,3,0,0,1,91,79.5l.47,4.82A3,3,0,0,1,88.71,87.62Z" transform="translate(-24.59 -14.85)"/><rect class="cls-8" x="86.16" y="78.06" width="4.03" height="8.28" rx="1.91" transform="translate(-32.21 -5.83) rotate(-5.61)"/><rect class="cls-9" x="86.93" y="79.46" width="1.08" height="2.03" rx="0.49" transform="translate(-32.07 -5.88) rotate(-5.63)"/><path class="cls-7" d="M100.4,101.54h0A3,3,0,0,1,98.07,98l1-4.73a3,3,0,0,1,3.59-2.33h0A3,3,0,0,1,105,94.48l-1,4.73A3,3,0,0,1,100.4,101.54Z" transform="translate(-24.59 -14.85)"/><rect class="cls-8" x="99.52" y="92.08" width="4.03" height="8.28" rx="1.91" transform="translate(-2.31 -33.9) rotate(12.03)"/><rect class="cls-9" x="100.84" y="93.34" width="1.08" height="2.03" rx="0.49" transform="translate(-2.64 -33.95) rotate(12.06)"/><path class="cls-7" d="M135.91,89.82h0a3,3,0,0,1-2.33-3.59l1-4.74a3,3,0,0,1,3.59-2.32h0a3,3,0,0,1,2.33,3.58l-1,4.74A3,3,0,0,1,135.91,89.82Z" transform="translate(-24.59 -14.85)"/><rect class="cls-8" x="135.03" y="80.35" width="4.03" height="8.28" rx="1.91" transform="translate(-3.97 -41.56) rotate(12.03)"/><rect class="cls-9" x="136.36" y="81.61" width="1.08" height="2.03" rx="0.49" transform="translate(-4.28 -41.65) rotate(12.07)"/><path class="cls-7" d="M119.08,96.15h0a3,3,0,0,1-2.32-3.59l1-4.74a3,3,0,0,1,3.59-2.33h0a3,3,0,0,1,2.32,3.59l-1,4.74A3,3,0,0,1,119.08,96.15Z" transform="translate(-24.59 -14.85)"/><rect class="cls-8" x="118.2" y="86.68" width="4.03" height="8.28" rx="1.91" transform="translate(-2.97 -37.96) rotate(12.06)"/><rect class="cls-9" x="119.53" y="87.94" width="1.08" height="2.03" rx="0.49" transform="translate(-3.44 -37.9) rotate(12.02)"/><path class="cls-7" d="M64.14,87.21h0A3,3,0,0,1,66,83.35l4.57-1.62a3,3,0,0,1,3.86,1.84h0a3,3,0,0,1-1.84,3.86L68,89.05A3,3,0,0,1,64.14,87.21Z" transform="translate(-24.59 -14.85)"/><rect class="cls-8" x="67.25" y="81.25" width="4.03" height="8.28" rx="1.91" transform="matrix(0.33, 0.94, -0.94, 0.33, 101.94, -23.33)"/><rect class="cls-9" x="70.24" y="83.27" width="1.08" height="2.03" rx="0.49" transform="translate(101.92 -25.47) rotate(70.44)"/><path class="cls-7" d="M83.49,106.72h0a3,3,0,0,1-1.26-4.09l2.27-4.28a3,3,0,0,1,4.09-1.25h0a3,3,0,0,1,1.26,4.09l-2.27,4.28A3,3,0,0,1,83.49,106.72Z" transform="translate(-24.59 -14.85)"/><rect class="cls-8" x="84.02" y="97.77" width="4.03" height="8.28" rx="1.91" transform="translate(33.24 -43.3) rotate(27.96)"/><rect class="cls-9" x="85.87" y="99.06" width="1.08" height="2.03" rx="0.49" transform="translate(32.45 -43.69) rotate(27.97)"/><path class="cls-7" d="M108.75,109.08h0a3,3,0,0,1,3.22-2.82l4.83.32a3,3,0,0,1,2.82,3.21h0a3,3,0,0,1-3.22,2.82l-4.83-.31A3,3,0,0,1,108.75,109.08Z" transform="translate(-24.59 -14.85)"/><rect class="cls-8" x="112.17" y="105.3" width="4.03" height="8.28" rx="1.91" transform="translate(206.27 -12.2) rotate(93.75)"/><rect class="cls-9" x="115.47" y="108" width="1.08" height="2.03" rx="0.49" transform="translate(207.82 -14.42) rotate(93.77)"/><path class="cls-7" d="M126.23,105.1h0a3,3,0,0,1,2-3.8l4.61-1.47a3,3,0,0,1,3.8,2h0a3,3,0,0,1-2,3.8L130,107.07A3,3,0,0,1,126.23,105.1Z" transform="translate(-24.59 -14.85)"/><rect class="cls-8" x="129.4" y="99.31" width="4.03" height="8.28" rx="1.91" transform="translate(165.61 -67.98) rotate(72.37)"/><rect class="cls-9" x="132.42" y="101.38" width="1.08" height="2.03" rx="0.49" transform="translate(165.62 -70.21) rotate(72.35)"/><path class="cls-10" d="M213.48,31.41c-5.54,3.29-5.85-.36-5.85-.36s-3.36-12.13.19-16c0,0,3.54-.9,4.72,1.5,0,0-.32,5.11,4.06,10.47C216.6,27,217,29.35,213.48,31.41Z" transform="translate(-24.59 -14.85)"/><path class="cls-11" d="M210.68,26.7c14.95-8.87,25.06,10.72,45.71,22,21.81,11.92,50.86,43.78,8.3,69s-56.59-15.52-56.6-40.37C208.08,53.83,195.73,35.57,210.68,26.7Z" transform="translate(-24.59 -14.85)"/><circle class="cls-7" cx="247.73" cy="89.06" r="24.08" transform="translate(-33.52 15.64) rotate(-6.92)"/><path class="cls-10" d="M212.35,29.52c7.47-4.43,13.28-.1,23.74,8.59,5.32,4.42,11.34,9.43,18.73,13.47A71.06,71.06,0,0,1,273.94,66.9c4.16,4.83,9.15,12.35,9.3,20.72.18,10-6.63,19.24-20.22,27.3s-24.91,9.63-33.65,4.66c-7.27-4.14-11.48-12.13-13.73-18.1a71.5,71.5,0,0,1-4.28-24.11c0-8.43-1.51-16.12-2.84-22.9-2.62-13.35-3.63-20.52,3.83-24.95m-1.67-2.82c-15,8.87-2.6,27.13-2.59,50.67,0,24.85,14,65.62,56.6,40.37s13.51-57.11-8.3-69c-20.65-11.29-30.76-30.88-45.71-22Z" transform="translate(-24.59 -14.85)"/><circle class="cls-12" cx="246.91" cy="87.76" r="22.21" transform="translate(128.07 317.41) rotate(-88.49)"/><path class="cls-6" d="M241.27,72.57c2.79,1.66,2.73,6.92-.14,11.75s-7.47,7.39-10.26,5.73-2.73-6.93.14-11.75S238.47,70.91,241.27,72.57Z" transform="translate(-24.59 -14.85)"/><path class="cls-7" d="M245.42,65.6A19.66,19.66,0,1,1,226.72,97a22.21,22.21,0,1,0,18.7-31.41Z" transform="translate(-24.59 -14.85)"/><path class="cls-13" d="M312.86,42s15.55,4,48.44-12.28l4.33-3,2.6,3.75-4.63,4.07s-16.88,20.65-26.71,43.6l-1.59-2.28s9.53-24.56,26.3-42.7c0,0-30.79,14.79-48.87,10.16Z" transform="translate(-24.59 -14.85)"/><path class="cls-14" d="M295.93,49.47A3.41,3.41,0,0,1,297.28,53c-.44,2.38-.08,6,5,8.06,8.08,3.3,18.82-1.48,18.33-9.15-.28-4.27-2.41-5.75-4.18-7.07A2.84,2.84,0,0,1,315.31,42c.36-2.17.88-4.73-1.89-8-5-5.87-16-1.87-19.55,6.11C291.62,45.23,294,48.07,295.93,49.47Z" transform="translate(-24.59 -14.85)"/><g class="cls-15"><path d="M320.61,51.87a10.72,10.72,0,0,0-.4-2.34c0,.31,0,.6,0,.93-.87,7.64-12.28,10.45-19.65,5.78A9,9,0,0,1,297.28,53c-.43,2.38,0,5.94,5,8C310.36,64.32,321.1,59.54,320.61,51.87Z" transform="translate(-24.59 -14.85)"/></g><path class="cls-6" d="M310.59,35.84c.05,1.26-1.54,2.34-3.53,2.41s-3.65-.9-3.69-2.17,1.54-2.33,3.53-2.4S310.55,34.58,310.59,35.84Z" transform="translate(-24.59 -14.85)"/><path class="cls-14" d="M322.62,89.37a3.42,3.42,0,0,1,2.78,2.52c.67,2.33,2.6,5.39,8.07,5,8.71-.67,16.17-9.75,12.29-16.39-2.15-3.69-4.73-4.06-6.89-4.44a2.84,2.84,0,0,1-2.25-2c-.65-2.11-1.32-4.62-5.26-6.31-7.07-3-15.16,5.5-14.75,14.22C316.87,87.52,320.23,89,322.62,89.37Z" transform="translate(-24.59 -14.85)"/><path class="cls-7" d="M345.77,80.48C346.12,86,340,91.61,333.14,92c-5.26.29-7.17-2.51-7.87-4.66a3.61,3.61,0,0,0-2.84-2.44,7.3,7.3,0,0,1-5.8-4.43,12.65,12.65,0,0,0,0,1.51c.26,5.56,3.62,7.06,6,7.41a3.42,3.42,0,0,1,2.78,2.52c.67,2.33,2.6,5.39,8.07,5C342.17,96.19,349.63,87.12,345.77,80.48Z" transform="translate(-24.59 -14.85)"/><path class="cls-6" d="M331.7,71.83c.05,1.27-1.54,2.34-3.53,2.41s-3.65-.9-3.69-2.16S326,69.74,328,69.67,331.66,70.57,331.7,71.83Z" transform="translate(-24.59 -14.85)"/><path class="cls-13" d="M256.6,430.07C261.24,450,258,459,258,459l1.29.25c2.95-8.3,1.85-19.79-.13-29.63Z" transform="translate(-24.59 -14.85)"/><path class="cls-14" d="M258.92,475.27a3.43,3.43,0,0,1,3.75-.17c2.12,1.17,5.64,2,9.23-2.17,5.7-6.61,4.59-18.31-2.83-20.29-4.14-1.1-6.22.46-8,1.71a2.85,2.85,0,0,1-3,.18c-1.94-1-4.19-2.34-8.18-.76-7.14,2.83-6.88,14.58-.44,20.47C253.54,478,257,476.7,258.92,475.27Z" transform="translate(-24.59 -14.85)"/><g class="cls-15"><path d="M269.07,452.64a10.28,10.28,0,0,0-2.34-.36c.28.1.56.2.86.34,7,3.26,6,15-.78,20.47a9.13,9.13,0,0,1-4.1,2c2.12,1.16,5.62,1.94,9.19-2.19C277.6,466.32,276.49,454.62,269.07,452.64Z" transform="translate(-24.59 -14.85)"/></g><path class="cls-6" d="M250.68,457c1.21.37,1.73,2.21,1.16,4.12s-2,3.17-3.23,2.81-1.72-2.2-1.15-4.12S249.47,456.66,250.68,457Z" transform="translate(-24.59 -14.85)"/><path class="cls-2" d="M466.35,31.63a19,19,0,0,0-3.86-14.38,18.87,18.87,0,0,0-3.9,27.08A19,19,0,0,0,466.35,31.63Z" transform="translate(-24.59 -14.85)"/><path class="cls-13" d="M447.77,60.21s6.21-19.6,24.73-26.7L474.2,39,472,37.49S458,39.05,449.07,61.35Z" transform="translate(-24.59 -14.85)"/><path class="cls-2" d="M470.79,46.2A19,19,0,0,0,456,47.37a18.88,18.88,0,0,0,25.9,8.79A19,19,0,0,0,470.79,46.2Z" transform="translate(-24.59 -14.85)"/><polygon class="cls-12" points="351.08 119.13 348.24 120.28 345.88 121.24 348.13 121.75 347.6 124.08 350.69 124.16 350.08 126.86 352.66 126.19 352.49 130.28 356.78 124.12 351.08 119.13"/><path class="cls-16" d="M455.31,53.1c19.55,17.15-3.06,28-10.76,59.91-7.75,32.13-18.56,41.63-32.73,42.54-13.92.89-32.45-15.94-32.45-15.94s-19.08-16.18-20-30.11c-.94-14.16,7.09-26.11,37.94-38C428,59.75,435.76,35.94,455.31,53.1Z" transform="translate(-24.59 -14.85)"/><path class="cls-17" d="M432.38,107.42c-18,29.57-31.79,36.09-46.15,33.27-5.18-1-10.21-4.55-14.5-8.61a90.19,90.19,0,0,0,7.64,7.53s18.53,16.83,32.45,15.94c14.17-.91,25-10.41,32.73-42.54,4.42-18.32,13.74-29.69,17.19-39.29C455.13,82.12,442.48,90.85,432.38,107.42Z" transform="translate(-24.59 -14.85)"/><path class="cls-12" d="M75.7,181.19c-7.59-8.3-8.32-25.58-8.32-25.58l-3.54,2.74c2.38,13.6,5.8,20.4,9.46,24.41Z" transform="translate(-24.59 -14.85)"/><path class="cls-2" d="M68.64,171.91s-23.2,17.61-44-12.3C24.59,159.61,54.8,144.69,68.64,171.91Z" transform="translate(-24.59 -14.85)"/><path class="cls-16" d="M114.17,248.43c12.42-7.23,23.5-5,28.57-16.3,13.64-30.24-8.54-82.31-37.43-78.92-16.55,1.94-20.46,15.72-33.13,23.1s-26.59,4-36.45,17.41c-17.21,23.46,17.12,68.45,50.15,71.51C98.18,266.38,101.75,255.66,114.17,248.43Z" transform="translate(-24.59 -14.85)"/><path class="cls-6" d="M120.43,180.55c-3.3,3.13-9.76,1.68-14.44-3.25s-5.8-11.46-2.5-14.59,9.76-1.67,14.44,3.25S123.73,177.42,120.43,180.55Z" transform="translate(-24.59 -14.85)"/><path class="cls-17" d="M141.07,230.71c-8.33,9.12-18.18,3.59-32.23,6.59s-20.78,12.07-32.11,7.16c-19.87-8.62-34.7-34.41-36-56a27.61,27.61,0,0,0-5,5.24c-17.21,23.46,17.12,68.45,50.15,71.51,12.3,1.15,15.87-9.57,28.29-16.8s23.5-5,28.57-16.3a43,43,0,0,0,2.31-6.52A42.47,42.47,0,0,1,141.07,230.71Z" transform="translate(-24.59 -14.85)"/><path class="cls-2" d="M287.17,184.1s28.49,6.12,19.39,41.42C306.56,225.52,275.55,212.34,287.17,184.1Z" transform="translate(-24.59 -14.85)"/><path class="cls-17" d="M284.59,195.5c-.64,20.4,22,30,22,30a52.75,52.75,0,0,0,1.78-12C302.72,212,289.89,207.26,284.59,195.5Z" transform="translate(-24.59 -14.85)"/><path class="cls-18" d="M312.75,289.64c11.3-15.06,15.72-28.91,8.93-46.61s.73-19.34-6.15-24.5-6.33,2.53-25.23,1-30.95,6.56-42.25,21.63-15.73,28.91-8.94,46.62-.73,19.33,6.15,24.49,6.34-2.52,25.24-1,30.95-6.56,42.25-21.63Z" transform="translate(-24.59 -14.85)"/><path class="cls-17" d="M321.41,243.3a58.21,58.21,0,0,1-1.83-5.54c.1.61.21,1.24.34,1.9,3.64,18.61-3.11,31.49-16.85,44.37h0c-13.73,12.89-27,18.82-45.35,14-8.39-2.2-13.1-1.79-16.31-1.29,1.81,9.74-1.95,11.61,3.58,15.75,6.88,5.16,6.34-2.52,25.23-.95s31-6.57,42.26-21.63h0C323.78,274.85,328.2,261,321.41,243.3Z" transform="translate(-24.59 -14.85)"/><path class="cls-5" d="M158.12,36.28c3.92-2.85,16.27-9,19,4.89,2.64,13.16,3.57,19.95-1.54,23.66S165.1,65,155,57.28C144.25,49.16,154.19,39.12,158.12,36.28Z" transform="translate(-24.59 -14.85)"/><path class="cls-7" d="M155.65,52.18c.4.15,2.63,1.52,2.45,2s-2.69,0-3.09-.14a1.26,1.26,0,0,1-.68-1.35A1.09,1.09,0,0,1,155.65,52.18Z" transform="translate(-24.59 -14.85)"/><path class="cls-19" d="M155.59,52.62c.28.11,2,1.08,1.94,1.38s-2-.19-2.3-.3a.59.59,0,0,1-.32-.74A.52.52,0,0,1,155.59,52.62Z" transform="translate(-24.59 -14.85)"/><path class="cls-7" d="M171.44,39.54c.32.3,2,2.44,1.62,2.86s-2.52-1-2.84-1.32a1.29,1.29,0,0,1-.19-1.52A1,1,0,0,1,171.44,39.54Z" transform="translate(-24.59 -14.85)"/><path class="cls-19" d="M171.24,39.93c.22.21,1.55,1.8,1.36,2s-1.83-1-2-1.16a.63.63,0,0,1-.06-.82A.5.5,0,0,1,171.24,39.93Z" transform="translate(-24.59 -14.85)"/><path class="cls-7" d="M161.51,53.71c.25.37,1.42,2.85,1,3.18s-2.25-1.6-2.5-2a1.29,1.29,0,0,1,.11-1.53A1.07,1.07,0,0,1,161.51,53.71Z" transform="translate(-24.59 -14.85)"/><path class="cls-19" d="M161.23,54c.18.26,1.15,2.12.92,2.31s-1.6-1.36-1.77-1.62a.6.6,0,0,1,.11-.81A.5.5,0,0,1,161.23,54Z" transform="translate(-24.59 -14.85)"/><path class="cls-7" d="M173.65,59.55c.26.37,1.42,2.85,1,3.18s-2.26-1.6-2.51-2a1.31,1.31,0,0,1,.12-1.53A1.06,1.06,0,0,1,173.65,59.55Z" transform="translate(-24.59 -14.85)"/><path class="cls-19" d="M173.38,59.89c.17.25,1.15,2.11.91,2.3s-1.59-1.36-1.76-1.62a.59.59,0,0,1,.11-.8A.5.5,0,0,1,173.38,59.89Z" transform="translate(-24.59 -14.85)"/><path class="cls-7" d="M156.12,47.72c.18.27.91,2.08.56,2.35S155,49,154.85,48.68a1,1,0,0,1,.2-1.15A.8.8,0,0,1,156.12,47.72Z" transform="translate(-24.59 -14.85)"/><path class="cls-19" d="M155.88,48c.12.18.75,1.55.55,1.7s-1.15-1-1.27-1.15a.47.47,0,0,1,.14-.61A.39.39,0,0,1,155.88,48Z" transform="translate(-24.59 -14.85)"/><path class="cls-7" d="M164.16,50.37c.17.26.91,2.08.56,2.35s-1.66-1.12-1.83-1.39a1,1,0,0,1,.2-1.15A.8.8,0,0,1,164.16,50.37Z" transform="translate(-24.59 -14.85)"/><path class="cls-19" d="M163.92,50.63c.12.18.75,1.54.55,1.7s-1.16-1-1.28-1.15a.48.48,0,0,1,.15-.61A.38.38,0,0,1,163.92,50.63Z" transform="translate(-24.59 -14.85)"/><path class="cls-7" d="M165.35,45.44c0,.33,0,2.31-.47,2.38s-1-1.81-1.07-2.13a.92.92,0,0,1,.66-.94A.89.89,0,0,1,165.35,45.44Z" transform="translate(-24.59 -14.85)"/><path class="cls-19" d="M165,45.56c0,.22,0,1.75-.2,1.79s-.64-1.43-.67-1.65a.44.44,0,0,1,.38-.48A.43.43,0,0,1,165,45.56Z" transform="translate(-24.59 -14.85)"/><path class="cls-7" d="M167.36,54.29c.16.28.82,2.13.45,2.38s-1.61-1.21-1.77-1.48A1,1,0,0,1,166.3,54,.83.83,0,0,1,167.36,54.29Z" transform="translate(-24.59 -14.85)"/><path class="cls-19" d="M167.11,54.54c.11.19.68,1.59.47,1.73s-1.11-1-1.22-1.22a.47.47,0,0,1,.18-.6A.39.39,0,0,1,167.11,54.54Z" transform="translate(-24.59 -14.85)"/><path class="cls-7" d="M164.54,41.48c.29.07,2,.86,1.87,1.32s-1.92.4-2.21.33a.94.94,0,0,1-.57-1A.86.86,0,0,1,164.54,41.48Z" transform="translate(-24.59 -14.85)"/><path class="cls-19" d="M164.52,41.85c.2,0,1.52.59,1.46.85s-1.45.14-1.65.09a.45.45,0,0,1-.27-.56A.43.43,0,0,1,164.52,41.85Z" transform="translate(-24.59 -14.85)"/><path class="cls-7" d="M168.32,49.1c.21.23,1.24,1.87.93,2.2s-1.82-.77-2-1a1,1,0,0,1,0-1.18A.81.81,0,0,1,168.32,49.1Z" transform="translate(-24.59 -14.85)"/><path class="cls-19" d="M168.12,49.4c.15.16,1,1.38.82,1.56s-1.29-.72-1.44-.88a.48.48,0,0,1,0-.63A.39.39,0,0,1,168.12,49.4Z" transform="translate(-24.59 -14.85)"/><path class="cls-7" d="M174.49,49.9c.1.31.38,2.27,0,2.42s-1.34-1.54-1.44-1.84a1,1,0,0,1,.47-1.06A.83.83,0,0,1,174.49,49.9Z" transform="translate(-24.59 -14.85)"/><path class="cls-19" d="M174.19,50.08c.07.22.36,1.71.13,1.8s-.89-1.26-1-1.47a.46.46,0,0,1,.29-.55A.4.4,0,0,1,174.19,50.08Z" transform="translate(-24.59 -14.85)"/><path class="cls-7" d="M171.48,36.48c.29.07,2,.86,1.87,1.32s-1.92.4-2.21.33a.94.94,0,0,1-.57-1A.85.85,0,0,1,171.48,36.48Z" transform="translate(-24.59 -14.85)"/><path class="cls-19" d="M171.46,36.85c.2,0,1.52.59,1.46.85s-1.45.14-1.65.09a.45.45,0,0,1-.27-.56A.41.41,0,0,1,171.46,36.85Z" transform="translate(-24.59 -14.85)"/><path class="cls-7" d="M169.68,44.11c.16.28.82,2.13.46,2.37s-1.62-1.19-1.78-1.47a1,1,0,0,1,.26-1.14A.81.81,0,0,1,169.68,44.11Z" transform="translate(-24.59 -14.85)"/><path class="cls-19" d="M169.43,44.36c.11.19.68,1.58.47,1.72s-1.11-1-1.22-1.21a.47.47,0,0,1,.17-.6A.4.4,0,0,1,169.43,44.36Z" transform="translate(-24.59 -14.85)"/><path class="cls-7" d="M163.87,59c.29.07,2,.86,1.87,1.32s-1.91.4-2.21.33a.93.93,0,0,1-.56-1A.85.85,0,0,1,163.87,59Z" transform="translate(-24.59 -14.85)"/><path class="cls-19" d="M163.85,59.41c.21.05,1.52.59,1.47.84s-1.45.15-1.66.1a.46.46,0,0,1-.27-.56A.41.41,0,0,1,163.85,59.41Z" transform="translate(-24.59 -14.85)"/><path class="cls-7" d="M169.28,61.1c.23.21,1.36,1.77,1.08,2.12s-1.87-.62-2.1-.84a1,1,0,0,1-.06-1.17A.81.81,0,0,1,169.28,61.1Z" transform="translate(-24.59 -14.85)"/><path class="cls-19" d="M169.1,61.42c.16.15,1.09,1.29.93,1.5s-1.34-.62-1.5-.77a.47.47,0,0,1,0-.63A.39.39,0,0,1,169.1,61.42Z" transform="translate(-24.59 -14.85)"/><path class="cls-7" d="M172.18,54.16c.17.26.92,2.07.57,2.34s-1.67-1.1-1.84-1.36a1,1,0,0,1,.2-1.16A.8.8,0,0,1,172.18,54.16Z" transform="translate(-24.59 -14.85)"/><path class="cls-19" d="M171.94,54.42c.12.18.76,1.54.56,1.69s-1.16-1-1.28-1.13a.48.48,0,0,1,.14-.62A.4.4,0,0,1,171.94,54.42Z" transform="translate(-24.59 -14.85)"/><path class="cls-7" d="M175.25,44.54c.18.26.93,2.07.58,2.34s-1.67-1.1-1.85-1.36a1,1,0,0,1,.2-1.16A.8.8,0,0,1,175.25,44.54Z" transform="translate(-24.59 -14.85)"/><path class="cls-19" d="M175,44.8c.12.18.76,1.54.57,1.69s-1.17-1-1.29-1.13a.48.48,0,0,1,.14-.62A.4.4,0,0,1,175,44.8Z" transform="translate(-24.59 -14.85)"/><path class="cls-7" d="M177.4,54.67c-.07.31-.83,2.11-1.25,2s-.33-2.09-.26-2.41a.86.86,0,0,1,.94-.59A.93.93,0,0,1,177.4,54.67Z" transform="translate(-24.59 -14.85)"/><path class="cls-19" d="M177.06,54.64c-.05.22-.57,1.63-.81,1.57s-.09-1.58-.05-1.8a.41.41,0,0,1,.52-.28A.44.44,0,0,1,177.06,54.64Z" transform="translate(-24.59 -14.85)"/><path class="cls-7" d="M160.49,48.09c.08.31.21,2.29-.2,2.42s-1.22-1.66-1.3-2a.94.94,0,0,1,.55-1A.84.84,0,0,1,160.49,48.09Z" transform="translate(-24.59 -14.85)"/><path class="cls-19" d="M160.18,48.25c.06.21.23,1.73,0,1.8s-.79-1.33-.84-1.55a.45.45,0,0,1,.33-.52A.4.4,0,0,1,160.18,48.25Z" transform="translate(-24.59 -14.85)"/><path class="cls-20" d="M176.63,64c.18-.18.36-.37.52-.56l.16-.19a6.48,6.48,0,0,0,.53-.76,2.54,2.54,0,0,0,.16-.28,6.19,6.19,0,0,0,.3-.57l.16-.36c.09-.22.17-.45.24-.68s.12-.38.17-.57.1-.39.14-.6.07-.36.09-.55.05-.34.07-.51c.05-.41.09-.84.11-1.29,0-.09,0-.19,0-.28V55.57c0-.29,0-.58,0-.89v-.07c0-.71-.1-1.45-.19-2.24V52.3c0-.41-.09-.83-.15-1.25-.48,5-1.88,8.08-5.19,9.77-5.63,2.87-10.43-1.47-19.27-10.65-.35-.36-.66-.72-1-1.08a23.55,23.55,0,0,0,5.29-10.37l.12-.09a15.05,15.05,0,0,0,.75,5.36,14,14,0,0,0,2.74,5,15.27,15.27,0,0,0-3-10.66A12.15,12.15,0,0,0,164,40.82a11.63,11.63,0,0,0,5.31.44,12.17,12.17,0,0,0-5-2.95l-.53-.14a20.58,20.58,0,0,0,3.93-.79,19.81,19.81,0,0,0,6.09-3.08,7,7,0,0,0-1.94-1.22,19.61,19.61,0,0,0-5.59.88,20.4,20.4,0,0,0-3.75,1.58c-1.25.45-2.8.88-3.29.43a2,2,0,0,1-.21-.26c-.31.2-.59.39-.83.57s-.5.37-.77.59c.05.11.1.22.13.31.24.81-1.21,2.67-2.15,3.76-.23.24-.45.49-.67.76l-.08.08,0,0a23.58,23.58,0,0,0-1.93,2.66c-.36.57-.68,1.15-1,1.73a9.08,9.08,0,0,1-.53-1.57c-.18.41-.34.82-.48,1.24h0a9.75,9.75,0,0,0-.48,3.91h0a8.28,8.28,0,0,0,.43,2h0a11.09,11.09,0,0,0,.54,1.24l.11.21.28.46c.06.1.12.2.19.3s.19.27.29.41l.27.35c.1.12.2.25.31.37l.36.4.32.33.49.46.29.26c.28.24.57.49.89.72,10.15,7.71,15.56,11.26,20.68,7.55.28-.21.54-.43.79-.65Z" transform="translate(-24.59 -14.85)"/><path class="cls-21" d="M165.39,32.36a19.83,19.83,0,0,0-3.76,1.58c-1.25.45-2.8.88-3.28.43-.86-.81-1.89-4.47-1.89-4.47s-.39-.23-1.52.59l-.26.19c-1.13.82-1.08,1.3-1.08,1.3s2.72,2.43,3.07,3.6c.24.81-1.21,2.67-2.15,3.76-.23.24-.45.49-.67.76l-.08.08,0,0a23.58,23.58,0,0,0-1.93,2.66,22.5,22.5,0,0,0-3.17,8.11,20,20,0,0,0,6.29-6.5,22.81,22.81,0,0,0,3-7.31l.12-.09a15.05,15.05,0,0,0,.75,5.36,14,14,0,0,0,2.74,5,15.4,15.4,0,0,0-3-10.66,12.15,12.15,0,0,0,4.57,2.52,11.63,11.63,0,0,0,5.31.44,12.17,12.17,0,0,0-5-2.95l-.53-.14a20.58,20.58,0,0,0,3.93-.79,19.14,19.14,0,0,0,7.22-4A17.8,17.8,0,0,0,165.39,32.36Z" transform="translate(-24.59 -14.85)"/><circle class="cls-22" cx="402.84" cy="229.54" r="56.37" transform="translate(-68.91 337.23) rotate(-45)"/><ellipse class="cls-6" cx="398.33" cy="188.48" rx="17.72" ry="9.9" transform="matrix(0.99, -0.17, 0.17, 0.99, -50.78, 55.4)"/><path class="cls-17" d="M402.84,261.18a56.38,56.38,0,0,1-55-44,56.38,56.38,0,1,0,110,0A56.38,56.38,0,0,1,402.84,261.18Z" transform="translate(-24.59 -14.85)"/><path class="cls-8" d="M440.67,192.27a11.79,11.79,0,0,1-7.44-4.41s1.8-2.28,7.1-3.45a2.58,2.58,0,0,1,2.8,3.83C442.47,189.37,441.65,190.72,440.67,192.27Z" transform="translate(-24.59 -14.85)"/><circle class="cls-18" cx="211.64" cy="186.89" r="47.14" transform="translate(-94.75 189.54) rotate(-45)"/><circle class="cls-23" cx="211.64" cy="186.89" r="41.93" transform="translate(-42.79 336.03) rotate(-76.96)"/><circle class="cls-24" cx="211.64" cy="186.89" r="38.81" transform="translate(-42.84 335.96) rotate(-76.94)"/><path class="cls-18" d="M216.71,180,235,162.85a2.24,2.24,0,0,0-.07-3.34,35.74,35.74,0,0,0-20.34-8.43,2.25,2.25,0,0,0-2.41,2.32l.79,25A2.25,2.25,0,0,0,216.71,180Z" transform="translate(-24.59 -14.85)"/><path class="cls-18" d="M204.73,181.81,187.6,163.57a2.24,2.24,0,0,0-3.34.06A35.8,35.8,0,0,0,175.83,184a2.25,2.25,0,0,0,2.32,2.4l25-.79A2.25,2.25,0,0,0,204.73,181.81Z" transform="translate(-24.59 -14.85)"/><path class="cls-18" d="M247.44,184A35.73,35.73,0,0,0,239,163.63a2.23,2.23,0,0,0-3.33-.06l-17.13,18.24a2.24,2.24,0,0,0,1.56,3.78l25,.79A2.23,2.23,0,0,0,247.44,184Z" transform="translate(-24.59 -14.85)"/><path class="cls-18" d="M208.73,151.08a35.8,35.8,0,0,0-20.35,8.43,2.24,2.24,0,0,0-.06,3.34L206.56,180a2.25,2.25,0,0,0,3.78-1.57l.79-25A2.25,2.25,0,0,0,208.73,151.08Z" transform="translate(-24.59 -14.85)"/><path class="cls-18" d="M212.93,195.36l-.79,25a2.24,2.24,0,0,0,2.41,2.31,35.73,35.73,0,0,0,20.34-8.42,2.24,2.24,0,0,0,.07-3.34L216.71,193.8A2.24,2.24,0,0,0,212.93,195.36Z" transform="translate(-24.59 -14.85)"/><path class="cls-18" d="M218.55,192l17.13,18.25a2.24,2.24,0,0,0,3.33-.06,35.73,35.73,0,0,0,8.43-20.35,2.24,2.24,0,0,0-2.31-2.41l-25,.8A2.24,2.24,0,0,0,218.55,192Z" transform="translate(-24.59 -14.85)"/><path class="cls-18" d="M203.16,188.19l-25-.8a2.25,2.25,0,0,0-2.32,2.41,35.8,35.8,0,0,0,8.43,20.35,2.25,2.25,0,0,0,3.34.06L204.73,192A2.24,2.24,0,0,0,203.16,188.19Z" transform="translate(-24.59 -14.85)"/><path class="cls-18" d="M206.56,193.8l-18.24,17.13a2.24,2.24,0,0,0,.06,3.34,35.79,35.79,0,0,0,20.35,8.42,2.23,2.23,0,0,0,2.4-2.31l-.79-25A2.24,2.24,0,0,0,206.56,193.8Z" transform="translate(-24.59 -14.85)"/><path class="cls-22" d="M402.93,372a67.05,67.05,0,0,0,53.19-76.9A1.81,1.81,0,0,0,454,293.6L326,318.74a1.82,1.82,0,0,0-1.43,2.16A67,67,0,0,0,402.93,372Z" transform="translate(-24.59 -14.85)"/><path class="cls-25" d="M401.5,364.68a59.63,59.63,0,0,0,47-70l-117,23A59.63,59.63,0,0,0,401.5,364.68Z" transform="translate(-24.59 -14.85)"/><path class="cls-26" d="M400.64,360.33a55.21,55.21,0,0,0,43.53-64.81L335.83,316.81A55.2,55.2,0,0,0,400.64,360.33Z" transform="translate(-24.59 -14.85)"/><path class="cls-22" d="M394.33,318.82l5.31,32.77a3.06,3.06,0,0,0,3.88,2.36,51.21,51.21,0,0,0,25.68-16.43,2.89,2.89,0,0,0-.76-4.37L399.1,315.77A3.15,3.15,0,0,0,394.33,318.82Z" transform="translate(-24.59 -14.85)"/><path class="cls-22" d="M401.14,312.89,429.24,332a3.24,3.24,0,0,0,4.55-1,46.25,46.25,0,0,0,6.32-28.75,3,3,0,0,0-3.78-2.5l-34,7.75A3,3,0,0,0,401.14,312.89Z" transform="translate(-24.59 -14.85)"/><path class="cls-22" d="M379.13,312.11,344.7,317.8a3.05,3.05,0,0,0-2.55,3.75,46.22,46.22,0,0,0,16.73,24.22,3.25,3.25,0,0,0,4.59-.82l18.76-28.35A3,3,0,0,0,379.13,312.11Z" transform="translate(-24.59 -14.85)"/><path class="cls-22" d="M385.21,318.5l-20.58,27.19a2.88,2.88,0,0,0,.94,4.33,51.27,51.27,0,0,0,30,5.5,3.06,3.06,0,0,0,2.69-3.66l-7.48-32.34A3.15,3.15,0,0,0,385.21,318.5Z" transform="translate(-24.59 -14.85)"/><path class="cls-17" d="M428.91,333.5a2.83,2.83,0,0,1-.51,1A51.22,51.22,0,0,1,403,351.33a3.11,3.11,0,0,1-3.65-1.53l.29,1.79a3.06,3.06,0,0,0,3.88,2.36,51.21,51.21,0,0,0,25.68-16.43A2.87,2.87,0,0,0,428.91,333.5Z" transform="translate(-24.59 -14.85)"/><path class="cls-17" d="M440.11,302.3a2.81,2.81,0,0,0-1.26-2,46.25,46.25,0,0,1-6,27.66,3.24,3.24,0,0,1-4.54,1.06l-28.41-18.67-.06,0a2.83,2.83,0,0,0,1.27,2.62L429.24,332a3.24,3.24,0,0,0,4.55-1A46.25,46.25,0,0,0,440.11,302.3Z" transform="translate(-24.59 -14.85)"/><path class="cls-17" d="M381.56,312.69a2.8,2.8,0,0,1-.47,1.65L362.8,343a3.24,3.24,0,0,1-4.57.89,46.88,46.88,0,0,1-12.88-14.22,46.83,46.83,0,0,0,13.53,16.1,3.25,3.25,0,0,0,4.59-.82l18.76-28.35A2.85,2.85,0,0,0,381.56,312.69Z" transform="translate(-24.59 -14.85)"/><path class="cls-22" d="M397.28,347.62l-6.5-28.1a2.82,2.82,0,0,0-.86-1.48Z" transform="translate(-24.59 -14.85)"/><path class="cls-17" d="M398.26,351.86l-.52-2.23a3.07,3.07,0,0,1-2.67,3.4A51.27,51.27,0,0,1,365,348a3,3,0,0,1-.95-.77,2.86,2.86,0,0,0,1.53,2.76,51.27,51.27,0,0,0,30,5.5A3.06,3.06,0,0,0,398.26,351.86Z" transform="translate(-24.59 -14.85)"/><path class="cls-2" d="M241.36,338.27s-8-8.07-13.22-7.56,9.35,12.52,9.35,12.52-14.27-9-17.44-6.85S235.27,349,235.27,349s-23.73-10.13-26-4.36,21.88,15,21.88,15-19.1-4.43-18.21-.68,16,6.46,16,6.46-17.31-.7-13.78,3.16,13.35,3.11,13.35,3.11,7.29-2.21,12-14.54S241.36,338.27,241.36,338.27Z" transform="translate(-24.59 -14.85)"/><path class="cls-27" d="M256.21,334.21a3.93,3.93,0,0,0-3.95-3.31h-.15a3.86,3.86,0,0,0-3.76,3.53,3.91,3.91,0,0,0-4.95-1.23l-.28.14a4,4,0,0,0-1.84,4.64,4,4,0,0,0-4.81.57h0l0,.05-.07.06,0,0-.07.07,0,0h0a3.93,3.93,0,0,0-.4,4.71,4,4,0,0,0-4.48,1.75l-.05.07a3.92,3.92,0,0,0,.54,4.84,4,4,0,0,0-4.18,2.52,2.77,2.77,0,0,0-.1.26,3.83,3.83,0,0,0,1.54,4.51,3.9,3.9,0,0,0-3.56,3.29l0,.14a.5.5,0,0,0,0,.12,3.85,3.85,0,0,0,2.35,4.05,4,4,0,0,0-2.88,4s0,.13,0,.16a3.84,3.84,0,0,0,3.31,3.62,3.94,3.94,0,0,0-1.69,4.78l.07.18a3.85,3.85,0,0,0,4.56,2.32,3.94,3.94,0,0,0,.63,5.27l.07.06.05,0,0,0a3.94,3.94,0,0,0,5,0,4,4,0,0,0,2.83,4.21l.18.05h0a3.93,3.93,0,0,0,4.47-1.87,3.9,3.9,0,0,0,3.66,3h.27a3.79,3.79,0,0,0,3.68-2.64,4,4,0,0,0,3.66,2.65h.28a3.89,3.89,0,0,0,3.59-2.71,4,4,0,0,0,3.77,2.56h.26a3.84,3.84,0,0,0,3.53-2.87,4,4,0,0,0,4.06,2.36l.18,0a3.89,3.89,0,0,0,3.39-3.22,4,4,0,0,0,4.35,1.83h0l.11,0,0,0h0l.09,0h0a3.94,3.94,0,0,0,2.74-4,3.93,3.93,0,0,0,5.06.24l.18-.14a3.84,3.84,0,0,0,.82-5.11,3.9,3.9,0,0,0,4.63-2.51l0-.11a4.35,4.35,0,0,0,.22-.86,3.91,3.91,0,0,0-2.09-4,3.91,3.91,0,0,0,2.76-4.44,2.34,2.34,0,0,0,0-.26,3.85,3.85,0,0,0-4.05-3.07,4,4,0,0,0,.59-5l-.13-.19a3.87,3.87,0,0,0-4.53-1.46,4,4,0,0,0-.42-4.72l-.17-.17a3.85,3.85,0,0,0-4.57-.75,4,4,0,0,0-.73-4.52h0l0-.05-.06-.06,0,0-.07-.06,0-.05h0a4,4,0,0,0-4.45-.55,4,4,0,0,0-1.09-4.45l-.13-.11h0a3.92,3.92,0,0,0-4.38-.45,3.9,3.9,0,0,0-1.2-4.39l-.07-.06a3.93,3.93,0,0,0-4.87-.15,4,4,0,0,0-2.26-4.44l0,0-.12-.05h0A4,4,0,0,0,256.21,334.21Z" transform="translate(-24.59 -14.85)"/><g class="cls-28"><path class="cls-29" d="M253.37,381.38a3.11,3.11,0,0,0,2.79,1.58,3.16,3.16,0,0,1-2.26-2.45,3.13,3.13,0,0,1-3.85,1.14h0l-.05,0-.06,0a3.14,3.14,0,0,1-1.8-3.44l-.23.11a3.24,3.24,0,0,1-2.39-.08h0l0,0-.07,0a3.24,3.24,0,0,1-1.83-3.71c0-.1,0-.21.07-.31a3.16,3.16,0,0,1-4.14-.77l-.1-.12a3.26,3.26,0,0,1,.21-4.18,3.18,3.18,0,0,1-3.47-2.09.84.84,0,0,1,0-.12,3.25,3.25,0,0,1,1.34-3.82,3.18,3.18,0,0,1-2.81-2.65s0-.07,0-.1v-.13a3.23,3.23,0,0,1,2-3.44,3.19,3.19,0,0,1-1.7-1.21,3.22,3.22,0,0,0-2.44,2.83s0,.19,0,.22a3.06,3.06,0,0,0,2.2,3.1,3.12,3.12,0,0,0-2,3.32v.12s0,.07,0,.1a3.08,3.08,0,0,0,2.72,2.56,3.15,3.15,0,0,0-1.3,3.69.84.84,0,0,0,0,.12,3.06,3.06,0,0,0,3.35,2,3.14,3.14,0,0,0-.2,4l.1.13a3.07,3.07,0,0,0,4,.74,3.14,3.14,0,0,0,1.69,3.89l.06,0h.07a3.05,3.05,0,0,0,2.3.07,3.12,3.12,0,0,0,1.55-1.21,3.15,3.15,0,0,0,3.12,2.58h.14A3.15,3.15,0,0,0,253.37,381.38Z" transform="translate(-24.59 -14.85)"/></g><path class="cls-2" d="M297.91,136.52s-6-6.48-5.2-10.5,9.54,7.67,9.54,7.67-6.33-11.36-4.31-13.74,9.2,12.22,9.2,12.22-6.52-18.73-1.63-20.25,10.61,17.46,10.61,17.46-2.2-14.95.79-14.13,4.1,12.61,4.1,12.61.71-13.43,3.61-10.56,1.55,10.44,1.55,10.44-2.35,5.57-12.78,8.82S297.91,136.52,297.91,136.52Z" transform="translate(-24.59 -14.85)"/><path class="cls-27" d="M293.49,147.89a2.92,2.92,0,0,1-2.42-3.18l0-.12a3.28,3.28,0,0,1,3.16-2.79,2.81,2.81,0,0,1-1-1.57,2.93,2.93,0,0,1,.4-2.31l.14-.21a3.47,3.47,0,0,1,3.93-1.26,3,3,0,0,1,.82-3.71h0l0,0,.06-.05h0l.06-.05,0,0h0a3.39,3.39,0,0,1,3.88-.15,3.16,3.16,0,0,1,1.76-3.41l.07,0a3.27,3.27,0,0,1,3.91.59,3.33,3.33,0,0,1,2.37-3.16l.23-.07a3.08,3.08,0,0,1,3.56,1.35,3.35,3.35,0,0,1,3-2.65h.22a3,3,0,0,1,3.14,2,3.41,3.41,0,0,1,3.45-2.09h.14a2.88,2.88,0,0,1,2.71,2.68,3.46,3.46,0,0,1,4-1.14l.14.06a2.8,2.8,0,0,1,1.56,3.61,3.31,3.31,0,0,1,4.27.67l0,.06,0,0v0a2.82,2.82,0,0,1,.54,2.16,3.17,3.17,0,0,1-.91,1.74,3,3,0,0,1,3.23,2.34l0,.13h0a3.16,3.16,0,0,1-1.86,3.4,2.88,2.88,0,0,1,2.21,2.94s0,.18,0,.21a3.19,3.19,0,0,1-2.43,2.76,2.89,2.89,0,0,1,1.89,2.93s0,.13,0,.22a3.25,3.25,0,0,1-2.48,2.68,2.87,2.87,0,0,1,1.81,3l0,.2a3.23,3.23,0,0,1-2.61,2.63,2.89,2.89,0,0,1,1.62,3.23l0,.14a3.32,3.32,0,0,1-2.89,2.51,2.89,2.89,0,0,1,1.17,3.44h0v0l0,.09,0,0v0l0,.06h0a3.42,3.42,0,0,1-3.48,2,3,3,0,0,1-.18,3.93l-.14.14a3.32,3.32,0,0,1-4.23.46,3.19,3.19,0,0,1-2.4,3.49l-.09,0a3.53,3.53,0,0,1-.72.14,3.06,3.06,0,0,1-3.09-1.75,3.27,3.27,0,0,1-1.39,1.58,3.41,3.41,0,0,1-2.45.41l-.2-.05a2.83,2.83,0,0,1-2.21-3.24,3.42,3.42,0,0,1-4.1.29l-.15-.1a2.8,2.8,0,0,1-.85-3.56,3.33,3.33,0,0,1-3.83-.49l-.13-.14a2.82,2.82,0,0,1-.27-3.56,3.32,3.32,0,0,1-3.65-.72h0l0-.05s0,0,0,0v0l-.05-.06,0,0h0a2.89,2.89,0,0,1-.12-3.46,3.27,3.27,0,0,1-3.56-1l-.08-.11h0a2.88,2.88,0,0,1,0-3.41,3.21,3.21,0,0,1-3.51-1.08l0,0a2.93,2.93,0,0,1,.24-3.78,3.15,3.15,0,0,1-3.46-1.9v0a.36.36,0,0,1,0-.09h0A3.1,3.1,0,0,1,293.49,147.89Z" transform="translate(-24.59 -14.85)"/><g class="cls-28"><path class="cls-29" d="M332.26,147.29a2.26,2.26,0,0,1,1.09,2.22,2.38,2.38,0,0,0-1.84-1.84,2.62,2.62,0,0,0,1.11-1.15,2.33,2.33,0,0,0,.11-1.79v0l0-.05a2.46,2.46,0,0,0-2.68-1.51,1.08,1.08,0,0,0,.11-.18,2.39,2.39,0,0,0,.12-1.85v0a0,0,0,0,1,0,0l0,0a2.56,2.56,0,0,0-2.9-1.54l-.26,0a2.34,2.34,0,0,0-.32-3.24l-.1-.08a2.79,2.79,0,0,0-3.43,0,2.31,2.31,0,0,0-1.45-2.76l-.1,0a2.85,2.85,0,0,0-3.22.91,2.35,2.35,0,0,0-2-2.27l-.08,0h-.1a2.81,2.81,0,0,0-3,1.46,2.36,2.36,0,0,0-.87-1.36,2.79,2.79,0,0,1,2.49-1.79h.19a2.35,2.35,0,0,1,2.37,1.81,2.71,2.71,0,0,1,2.86-1.41h.1l.07,0a2.28,2.28,0,0,1,1.9,2.19,2.77,2.77,0,0,1,3.11-.88l.1,0a2.24,2.24,0,0,1,1.4,2.66,2.7,2.7,0,0,1,3.31,0l.1.08a2.25,2.25,0,0,1,.3,3.13,2.51,2.51,0,0,1,3.06,1.44l0,.06v.05a2.28,2.28,0,0,1-.11,1.79,2.66,2.66,0,0,1-1.1,1.15A2.33,2.33,0,0,1,334.5,145v.11h0A2.64,2.64,0,0,1,332.26,147.29Z" transform="translate(-24.59 -14.85)"/></g><path class="cls-18" d="M203.69,290.76a20.39,20.39,0,0,1,7.25-15.63c-2.54-5.65-9.15-3.88-9.15-3.88.54,6.37-3.54,13.47-5.08,15.88a14.37,14.37,0,0,0-2.55-.09c-10.72.66-37.43,39.34-83.21,30.15-38.56-7.75-62.09-43.31-68.75-29.28C32.9,307.5,60.63,345.5,104,354.46s72.6-4.34,91.48-30.55C207.81,306.74,208,296,203.69,290.76Z" transform="translate(-24.59 -14.85)"/><path class="cls-13" d="M210.94,275.13c-2.54-5.65-9.15-3.88-9.15-3.88a19,19,0,0,1-.93,7.08l1.21-.51v3.25l2.05-1.88v2.86l2-1A19.79,19.79,0,0,1,210.94,275.13Z" transform="translate(-24.59 -14.85)"/><g class="cls-30"><path d="M203.72,290.08a72.8,72.8,0,0,1-8.28,14.27c-18.88,26.21-48.16,39.52-91.48,30.56-31.54-6.52-54.79-28.43-61.54-47.42-.07.13-.15.27-.22.42C32.9,307.5,60.63,345.5,104,354.46s72.6-4.34,91.48-30.55c12.37-17.17,12.58-27.94,8.25-33.15C203.69,290.53,203.71,290.31,203.72,290.08Z" transform="translate(-24.59 -14.85)"/></g><path class="cls-14" d="M191.63,387.34a4,4,0,0,1,5.43-.39c11.54,9,25.79,10.15,32.51,26.07,12.71,30.09-36.47,70.31-73.34,65.08-12.64-1.79-14.58-12.63-23.93-23a4,4,0,0,1,.09-5.49Z" transform="translate(-24.59 -14.85)"/><path class="cls-31" d="M190,389.09c1.36-1.43,1.64-3.21,3.17-2,10.78,8.43,27.49,14.05,32.29,25.93,11.45,28.31-34.5,66.12-69.05,61.38-11.85-1.63-14.46-13.14-23.18-22.85-1.31-1.46-.42-2.36,1-3.8Z" transform="translate(-24.59 -14.85)"/><path class="cls-32" d="M164.89,420.67c7.84-7.37,15.51-7.55,18.91-2.36,3.61,5.51-9,21.63-19.22,16.89C156.75,431.57,161,424.33,164.89,420.67Z" transform="translate(-24.59 -14.85)"/><path class="cls-12" d="M174.2,421.87a.54.54,0,0,1,.45.81,9.13,9.13,0,0,1-8.41,4.72.55.55,0,0,1-.46-.81,9.16,9.16,0,0,1,8.42-4.72Z" transform="translate(-24.59 -14.85)"/><circle class="cls-12" cx="308.66" cy="417.19" r="47.53"/><circle class="cls-16" cx="333.25" cy="432.04" r="43.53" transform="translate(-232.48 347.34) rotate(-45)"/><path class="cls-31" d="M333.25,411l.88,12.36a1.47,1.47,0,0,0,2.69.72l6.94-10.27L338.34,425a1.47,1.47,0,0,0,2,2l11.15-5.42-10.27,7a1.47,1.47,0,0,0,.72,2.68l12.37.88-12.37.88a1.47,1.47,0,0,0-.72,2.68l10.27,6.95-11.15-5.42a1.47,1.47,0,0,0-2,2l5.42,11.15L336.82,440a1.47,1.47,0,0,0-2.69.72l-.88,12.36-.88-12.36a1.47,1.47,0,0,0-2.68-.72l-6.94,10.27,5.42-11.15a1.47,1.47,0,0,0-2-2l-11.14,5.42,10.26-6.95a1.47,1.47,0,0,0-.72-2.68L312.24,432l12.36-.88a1.47,1.47,0,0,0,.72-2.68l-10.26-7L326.2,427a1.47,1.47,0,0,0,2-2l-5.42-11.15,6.94,10.27a1.47,1.47,0,0,0,2.68-.72Z" transform="translate(-24.59 -14.85)"/><path class="cls-33" d="M338.76,414.72c-.24,1.11-1,1.9-1.62,1.76s-1-1.16-.76-2.27,1-1.9,1.63-1.76S339,413.61,338.76,414.72Z" transform="translate(-24.59 -14.85)"/><path class="cls-33" d="M343.37,408.21c-.57,1-1.5,1.51-2.09,1.17s-.58-1.41,0-2.39,1.51-1.51,2.09-1.17S344,407.23,343.37,408.21Z" transform="translate(-24.59 -14.85)"/><path class="cls-33" d="M344.87,421.68c-.81.8-1.85,1.06-2.32.58s-.19-1.52.62-2.31,1.85-1.06,2.32-.58S345.68,420.88,344.87,421.68Z" transform="translate(-24.59 -14.85)"/><path class="cls-33" d="M352.3,418.77c-1,.51-2.08.43-2.38-.17s.28-1.5,1.3-2,2.09-.43,2.39.18S353.32,418.27,352.3,418.77Z" transform="translate(-24.59 -14.85)"/><ellipse class="cls-33" cx="347.54" cy="414.47" rx="2.06" ry="1.23" transform="translate(-217.29 372.98) rotate(-47.2)"/><path class="cls-33" d="M337.84,407c-.16,1.13-.82,2-1.49,1.87s-1.08-1.08-.92-2.2.82-2,1.49-1.88S338,405.85,337.84,407Z" transform="translate(-24.59 -14.85)"/><path class="cls-33" d="M330.34,416c.19,1.12-.19,2.12-.85,2.23s-1.36-.7-1.55-1.82.18-2.12.85-2.23S330.14,414.91,330.34,416Z" transform="translate(-24.59 -14.85)"/><path class="cls-33" d="M326.58,409.19c.28,1.1,0,2.13-.68,2.29s-1.41-.6-1.68-1.7,0-2.13.68-2.3S326.3,408.08,326.58,409.19Z" transform="translate(-24.59 -14.85)"/><ellipse class="cls-33" cx="349.63" cy="427.18" rx="2.06" ry="1.22" transform="translate(-84.3 41.97) rotate(-8.56)"/><path class="cls-33" d="M357.53,430.39c-1.12-.19-1.94-.88-1.83-1.54s1.11-1.05,2.23-.86,1.94.88,1.83,1.54S358.65,430.58,357.53,430.39Z" transform="translate(-24.59 -14.85)"/><path class="cls-33" d="M346.81,437.22c-1-.47-1.64-1.35-1.36-2s1.35-.72,2.38-.25,1.64,1.36,1.36,2S347.84,437.7,346.81,437.22Z" transform="translate(-24.59 -14.85)"/><path class="cls-33" d="M354.16,441.64c-.83-.77-1.14-1.8-.68-2.29s1.5-.27,2.33.5,1.14,1.8.69,2.3S355,442.41,354.16,441.64Z" transform="translate(-24.59 -14.85)"/><path class="cls-33" d="M354.05,437.26c-1.05-.42-1.7-1.28-1.45-1.91s1.3-.8,2.35-.38,1.71,1.28,1.46,1.91S355.1,437.69,354.05,437.26Z" transform="translate(-24.59 -14.85)"/><path class="cls-33" d="M343.48,444c-1-.48-1.64-1.36-1.36-2s1.35-.72,2.38-.24,1.64,1.36,1.36,2S344.51,444.48,343.48,444Z" transform="translate(-24.59 -14.85)"/><path class="cls-33" d="M347.94,449.12c-.83-.77-1.13-1.8-.67-2.29s1.5-.27,2.33.51,1.14,1.8.68,2.29S348.78,449.9,347.94,449.12Z" transform="translate(-24.59 -14.85)"/><path class="cls-33" d="M336,449.52c-.44-1.06-.28-2.12.34-2.37s1.48.4,1.92,1.46.28,2.12-.35,2.37S336.43,450.58,336,449.52Z" transform="translate(-24.59 -14.85)"/><path class="cls-33" d="M335.92,456.38c-.27-1.1,0-2.13.69-2.29s1.41.61,1.68,1.71,0,2.13-.7,2.29S336.19,457.49,335.92,456.38Z" transform="translate(-24.59 -14.85)"/><path class="cls-33" d="M340.46,454c-.65-.93-.72-2-.16-2.39s1.53.05,2.18,1,.72,2,.16,2.4S341.11,454.89,340.46,454Z" transform="translate(-24.59 -14.85)"/><path class="cls-33" d="M327.64,447.54c.09-1.13.7-2,1.37-2s1.15,1,1.06,2.15-.7,2-1.37,2S327.56,448.67,327.64,447.54Z" transform="translate(-24.59 -14.85)"/><path class="cls-33" d="M324,454.62c.44-1.06,1.29-1.7,1.91-1.44s.78,1.31.34,2.36-1.29,1.7-1.91,1.44S323.52,455.67,324,454.62Z" transform="translate(-24.59 -14.85)"/><path class="cls-33" d="M319.7,442.63c.7-.9,1.69-1.29,2.22-.88s.4,1.47-.3,2.37-1.69,1.3-2.22.89S319,443.53,319.7,442.63Z" transform="translate(-24.59 -14.85)"/><path class="cls-33" d="M311.91,447.84c.94-.64,2-.71,2.39-.16s-.08,1.53-1,2.17-2,.71-2.39.15S311,448.48,311.91,447.84Z" transform="translate(-24.59 -14.85)"/><path class="cls-33" d="M317.38,448.76c.65-.93,1.63-1.37,2.19-1s.49,1.46-.16,2.39-1.63,1.37-2.19,1S316.73,449.69,317.38,448.76Z" transform="translate(-24.59 -14.85)"/><path class="cls-33" d="M316.81,435c1-.49,2.1-.39,2.39.22s-.32,1.49-1.34,2-2.1.39-2.39-.22S315.79,435.51,316.81,435Z" transform="translate(-24.59 -14.85)"/><path class="cls-33" d="M309.65,437.67c.94-.64,2-.7,2.39-.15s-.08,1.53-1,2.16-2,.71-2.38.15S308.71,438.31,309.65,437.67Z" transform="translate(-24.59 -14.85)"/><path class="cls-33" d="M317.88,427.12c1.14.08,2,.69,2,1.36s-1,1.15-2.16,1.07-2-.69-2-1.36S316.73,427,317.88,427.12Z" transform="translate(-24.59 -14.85)"/><path class="cls-33" d="M311.51,422.13c1.12.22,1.92.93,1.79,1.59s-1.14,1-2.25.8-1.92-.93-1.79-1.59S310.39,421.92,311.51,422.13Z" transform="translate(-24.59 -14.85)"/><path class="cls-33" d="M322,419.79c1,.62,1.45,1.58,1.09,2.14s-1.45.52-2.41-.09-1.45-1.58-1.09-2.14S321.07,419.17,322,419.79Z" transform="translate(-24.59 -14.85)"/><path class="cls-33" d="M315.12,415.85c1,.62,1.45,1.58,1.09,2.14s-1.44.53-2.41-.09-1.45-1.58-1.08-2.14S314.16,415.24,315.12,415.85Z" transform="translate(-24.59 -14.85)"/><path class="cls-33" d="M319.52,413.53c.87.72,1.24,1.73.81,2.25s-1.49.35-2.36-.38-1.24-1.73-.82-2.25S318.64,412.8,319.52,413.53Z" transform="translate(-24.59 -14.85)"/><path class="cls-33" d="M310.53,427.11c1.13-.09,2.09.39,2.15,1.07s-.82,1.29-1.95,1.38-2.09-.39-2.15-1.06S309.4,427.2,310.53,427.11Z" transform="translate(-24.59 -14.85)"/><path class="cls-33" d="M356.73,424.78c-1.11.25-2.13-.08-2.28-.73s.63-1.4,1.74-1.65,2.13.08,2.28.73S357.84,424.53,356.73,424.78Z" transform="translate(-24.59 -14.85)"/><path class="cls-5" d="M166.23,264.53c-3-5.63-14.23-19.94-26-4.94-11.18,14.24-16.44,21.84-12.51,29.17s12.63,6.15,29.6,2.68C175.17,287.79,169.25,270.15,166.23,264.53Z" transform="translate(-24.59 -14.85)"/><path class="cls-7" d="M159.55,284.93c-.58,0-4.1.33-4.21,1.06s3.24,1.55,3.82,1.59a1.73,1.73,0,0,0,1.64-1.23A1.42,1.42,0,0,0,159.55,284.93Z" transform="translate(-24.59 -14.85)"/><path class="cls-19" d="M159.35,285.5c-.4,0-3.11.13-3.17.55s2.55.92,2.95.95a.82.82,0,0,0,.83-.71A.66.66,0,0,0,159.35,285.5Z" transform="translate(-24.59 -14.85)"/><path class="cls-7" d="M148.13,260.89c-.57.18-3.85,1.81-3.7,2.5s3.68.21,4.24,0a1.79,1.79,0,0,0,1.17-1.71A1.41,1.41,0,0,0,148.13,260.89Z" transform="translate(-24.59 -14.85)"/><path class="cls-19" d="M148.14,261.47c-.4.12-3,1.27-2.88,1.67s2.79-.11,3.19-.23A.84.84,0,0,0,149,262,.67.67,0,0,0,148.14,261.47Z" transform="translate(-24.59 -14.85)"/><path class="cls-7" d="M151.54,283.45c-.53.3-3.45,2.6-3.15,3.24s3.7-.64,4.23-.94a1.75,1.75,0,0,0,.79-1.9A1.45,1.45,0,0,0,151.54,283.45Z" transform="translate(-24.59 -14.85)"/><path class="cls-19" d="M151.67,284c-.37.21-2.68,1.88-2.51,2.24s2.75-.73,3.12-.94a.81.81,0,0,0,.36-1A.68.68,0,0,0,151.67,284Z" transform="translate(-24.59 -14.85)"/><path class="cls-7" d="M133.3,283.56c-.53.3-3.45,2.6-3.15,3.24s3.7-.64,4.23-.94a1.75,1.75,0,0,0,.79-1.9A1.46,1.46,0,0,0,133.3,283.56Z" transform="translate(-24.59 -14.85)"/><path class="cls-19" d="M133.43,284.12c-.37.21-2.68,1.88-2.51,2.24s2.76-.73,3.12-.94a.8.8,0,0,0,.36-1A.68.68,0,0,0,133.43,284.12Z" transform="translate(-24.59 -14.85)"/><path class="cls-7" d="M161.69,279.34c-.37.22-2.37,2-2.1,2.49s2.68-.39,3-.62a1.32,1.32,0,0,0,.46-1.5A1.09,1.09,0,0,0,161.69,279.34Z" transform="translate(-24.59 -14.85)"/><path class="cls-19" d="M161.82,279.78c-.26.16-1.85,1.43-1.7,1.72s2-.49,2.24-.65a.62.62,0,0,0,.2-.81A.53.53,0,0,0,161.82,279.78Z" transform="translate(-24.59 -14.85)"/><path class="cls-7" d="M150.36,278c-.37.23-2.37,2-2.1,2.5s2.68-.4,3.05-.62a1.32,1.32,0,0,0,.46-1.5A1.1,1.1,0,0,0,150.36,278Z" transform="translate(-24.59 -14.85)"/><path class="cls-19" d="M150.49,278.4c-.25.16-1.84,1.43-1.69,1.72s2-.5,2.24-.65a.63.63,0,0,0,.19-.81A.53.53,0,0,0,150.49,278.4Z" transform="translate(-24.59 -14.85)"/><path class="cls-7" d="M151.92,271.4c-.25.36-1.35,2.78-.88,3.1s2.34-1.58,2.59-1.94a1.19,1.19,0,0,0-.23-1.49A1.21,1.21,0,0,0,151.92,271.4Z" transform="translate(-24.59 -14.85)"/><path class="cls-19" d="M152.24,271.72c-.17.25-1.11,2.07-.84,2.25s1.64-1.34,1.81-1.59a.55.55,0,0,0-.17-.78A.57.57,0,0,0,152.24,271.72Z" transform="translate(-24.59 -14.85)"/><path class="cls-7" d="M144.1,280.84c-.36.24-2.28,2.08-2,2.58s2.67-.53,3-.77a1.29,1.29,0,0,0,.38-1.51A1.09,1.09,0,0,0,144.1,280.84Z" transform="translate(-24.59 -14.85)"/><path class="cls-19" d="M144.26,281.27c-.25.17-1.79,1.52-1.62,1.8s2-.6,2.22-.76a.63.63,0,0,0,.15-.82A.53.53,0,0,0,144.26,281.27Z" transform="translate(-24.59 -14.85)"/><path class="cls-7" d="M155.31,267.12c-.4-.08-2.91-.08-3.07.51s2.07,1.57,2.47,1.65a1.29,1.29,0,0,0,1.3-.87A1.11,1.11,0,0,0,155.31,267.12Z" transform="translate(-24.59 -14.85)"/><path class="cls-19" d="M155.1,267.57c-.28-.05-2.19-.16-2.28.18s1.66,1,1.94,1.05a.64.64,0,0,0,.67-.51A.55.55,0,0,0,155.1,267.57Z" transform="translate(-24.59 -14.85)"/><path class="cls-7" d="M146.11,274.08c-.4.16-2.64,1.54-2.47,2.11s2.67.1,3.06-.05a1.33,1.33,0,0,0,.7-1.42A1.06,1.06,0,0,0,146.11,274.08Z" transform="translate(-24.59 -14.85)"/><path class="cls-19" d="M146.16,274.56c-.28.1-2,1.08-1.95,1.4s2-.13,2.29-.24a.64.64,0,0,0,.33-.77A.52.52,0,0,0,146.16,274.56Z" transform="translate(-24.59 -14.85)"/><path class="cls-7" d="M138.16,271.55c-.31.31-1.85,2.49-1.46,2.91s2.56-1.08,2.87-1.39a1.24,1.24,0,0,0,.07-1.54A1.14,1.14,0,0,0,138.16,271.55Z" transform="translate(-24.59 -14.85)"/><path class="cls-19" d="M138.4,271.94c-.21.21-1.47,1.83-1.25,2.07s1.84-1,2.06-1.21a.59.59,0,0,0,0-.82A.54.54,0,0,0,138.4,271.94Z" transform="translate(-24.59 -14.85)"/><path class="cls-7" d="M150,257.21c-.39-.08-2.9-.08-3.06.51s2.07,1.57,2.47,1.66a1.3,1.3,0,0,0,1.29-.88A1.09,1.09,0,0,0,150,257.21Z" transform="translate(-24.59 -14.85)"/><path class="cls-19" d="M149.75,257.66c-.28-.05-2.19-.16-2.29.18s1.67,1,1.95,1.05a.62.62,0,0,0,.66-.51A.54.54,0,0,0,149.75,257.66Z" transform="translate(-24.59 -14.85)"/><path class="cls-7" d="M147.49,267.35c-.36.24-2.29,2.08-2,2.58s2.68-.52,3-.76a1.3,1.3,0,0,0,.39-1.51A1.09,1.09,0,0,0,147.49,267.35Z" transform="translate(-24.59 -14.85)"/><path class="cls-19" d="M147.64,267.79c-.25.16-1.79,1.5-1.62,1.79s2-.59,2.22-.76a.61.61,0,0,0,.15-.82A.53.53,0,0,0,147.64,267.79Z" transform="translate(-24.59 -14.85)"/><path class="cls-7" d="M145.44,288.49c-.4-.08-2.9-.08-3.07.51s2.08,1.57,2.48,1.65a1.3,1.3,0,0,0,1.29-.88A1.09,1.09,0,0,0,145.44,288.49Z" transform="translate(-24.59 -14.85)"/><path class="cls-19" d="M145.23,288.94c-.27-.06-2.18-.16-2.28.18s1.67,1,2,1.05a.64.64,0,0,0,.66-.51A.53.53,0,0,0,145.23,288.94Z" transform="translate(-24.59 -14.85)"/><path class="cls-7" d="M137.65,287.89c-.41.13-2.72,1.35-2.6,1.93s2.64.31,3,.18a1.34,1.34,0,0,0,.8-1.37A1.08,1.08,0,0,0,137.65,287.89Z" transform="translate(-24.59 -14.85)"/><path class="cls-19" d="M137.66,288.37c-.28.09-2.09.94-2,1.27s2,0,2.28-.07a.64.64,0,0,0,.38-.75A.53.53,0,0,0,137.66,288.37Z" transform="translate(-24.59 -14.85)"/><path class="cls-7" d="M138.36,278c-.37.22-2.38,1.95-2.12,2.47s2.69-.36,3.06-.58a1.33,1.33,0,0,0,.47-1.5A1.1,1.1,0,0,0,138.36,278Z" transform="translate(-24.59 -14.85)"/><path class="cls-19" d="M138.49,278.4c-.26.15-1.86,1.41-1.71,1.7s2-.48,2.25-.63a.62.62,0,0,0,.19-.81A.52.52,0,0,0,138.49,278.4Z" transform="translate(-24.59 -14.85)"/><path class="cls-7" d="M140.49,264.71c-.37.22-2.38,2-2.12,2.47s2.69-.37,3.06-.59a1.3,1.3,0,0,0,.46-1.49A1.08,1.08,0,0,0,140.49,264.71Z" transform="translate(-24.59 -14.85)"/><path class="cls-19" d="M140.62,265.16c-.26.15-1.86,1.4-1.71,1.7s2-.48,2.24-.63a.62.62,0,0,0,.2-.81A.51.51,0,0,0,140.62,265.16Z" transform="translate(-24.59 -14.85)"/><path class="cls-7" d="M131.73,275.6c-.1.42-.27,3,.3,3.11s1.67-2.32,1.78-2.74a1.1,1.1,0,0,0-.77-1.24A1.32,1.32,0,0,0,131.73,275.6Z" transform="translate(-24.59 -14.85)"/><path class="cls-19" d="M132.16,275.76c-.07.29-.3,2.28,0,2.34s1.07-1.84,1.15-2.13a.53.53,0,0,0-.46-.63A.62.62,0,0,0,132.16,275.76Z" transform="translate(-24.59 -14.85)"/><path class="cls-7" d="M156.18,277.31c-.29.33-1.65,2.62-1.22,3s2.48-1.29,2.77-1.62a1.24,1.24,0,0,0-.06-1.53A1.17,1.17,0,0,0,156.18,277.31Z" transform="translate(-24.59 -14.85)"/><path class="cls-19" d="M156.46,277.67c-.2.23-1.33,1.94-1.08,2.16s1.76-1.15,2-1.38a.59.59,0,0,0-.08-.81A.57.57,0,0,0,156.46,277.67Z" transform="translate(-24.59 -14.85)"/><path class="cls-20" d="M127,287.17c-.11-.32-.21-.64-.29-1,0-.11-.06-.21-.08-.32a8.21,8.21,0,0,1-.18-1.21c0-.14,0-.28,0-.42a8.19,8.19,0,0,1,0-.86c0-.17,0-.34,0-.51s.07-.63.12-.95.09-.52.15-.78.12-.53.19-.79.14-.47.22-.71.14-.44.22-.66c.19-.52.41-1.05.66-1.6l.15-.35c.15-.32.32-.64.48-1l.25-.47c.18-.34.37-.69.58-1.05a.22.22,0,0,1,.05-.08c.47-.83,1-1.68,1.58-2.57l.06-.09c.3-.46.61-.93.94-1.4-2.45,6.23-2.64,10.72.34,14.62,5.06,6.62,13.5,4.14,29.77-1.84.64-.23,1.23-.48,1.8-.75a28.81,28.81,0,0,1-.89-4.95,29.59,29.59,0,0,1,.8-10.44l-.09-.17a20.42,20.42,0,0,1-4.17,6,19.5,19.5,0,0,1-6.33,4.39,21.12,21.12,0,0,1,10.15-11,17.29,17.29,0,0,1-7.06.42,15.63,15.63,0,0,1-6.69-2.48,16.85,16.85,0,0,1,7.86-.68c.25,0,.49.08.73.12a26.4,26.4,0,0,1-4.28-3.17,25.25,25.25,0,0,1-5.49-7.12,10,10,0,0,1,3.09-.36,25.16,25.16,0,0,1,6.22,4.22,26.22,26.22,0,0,1,3.59,4c1.23,1.25,2.84,2.65,3.71,2.38a4.32,4.32,0,0,0,.41-.18c.25.4.47.79.66,1.14s.37.72.57,1.15a2.7,2.7,0,0,0-.35.29c-.78.83-.15,3.87.31,5.71.13.42.25.85.36,1.28,0,.1,0,.15,0,.15v0a29.47,29.47,0,0,1,.72,4.27c.09.89.13,1.76.14,2.63a14.08,14.08,0,0,0,1.6-1.58,17,17,0,0,1-.18,1.75h0a13.23,13.23,0,0,1-1.79,5h0a11.53,11.53,0,0,1-1.75,2.19h0a13.68,13.68,0,0,1-1.41,1.17,2.48,2.48,0,0,1-.26.19c-.19.14-.4.27-.61.4l-.41.25-.6.32c-.18.1-.36.18-.55.27l-.59.27-.69.27-.57.22-.89.27-.5.15c-.49.13-1,.25-1.51.36-17,3.47-25.66,4.65-29.6-2.68-.21-.41-.39-.82-.56-1.23Z" transform="translate(-24.59 -14.85)"/><path class="cls-21" d="M159.82,255.73a26.68,26.68,0,0,1,3.58,4c1.23,1.25,2.85,2.64,3.71,2.37,1.53-.47,5-4.27,5-4.27s.61-.06,1.48,1.56l.2.37c.87,1.62.52,2.17.52,2.17s-4.77,1.38-5.91,2.58c-.77.82-.15,3.87.32,5.71.13.42.24.84.35,1.28l.05.15,0,0a31.29,31.29,0,0,1,.73,4.28,29,29,0,0,1-1.11,11.48,25.57,25.57,0,0,1-3.65-11.33,29.55,29.55,0,0,1,.8-10.44l-.09-.17a20.42,20.42,0,0,1-4.17,6,19.78,19.78,0,0,1-6.32,4.39,19.66,19.66,0,0,1,4.57-7,20.2,20.2,0,0,1,5.57-4.05,17.27,17.27,0,0,1-7.06.43,15.55,15.55,0,0,1-6.69-2.49,17,17,0,0,1,7.86-.68l.74.13A26,26,0,0,1,156,259a24.49,24.49,0,0,1-6.3-8.87A23.46,23.46,0,0,1,159.82,255.73Z" transform="translate(-24.59 -14.85)"/><path class="cls-12" d="M50.18,417.73l-9.51-5.38s-2.94,3-12.14.65l5.12,3.2-3.87,2.28,3.91,2.21-2.32,4.7L35.51,427l-2.59,5.23s2.17-3.13,13.61-5.75Z" transform="translate(-24.59 -14.85)"/><path class="cls-12" d="M122.62,402l9.51,5.39s2.94-3.06,12.14-.65l-5.12-3.21,3.87-2.27-3.9-2.21,2.32-4.7-4.15-1.57,2.59-5.23s-2.16,3.13-13.6,5.75Z" transform="translate(-24.59 -14.85)"/><ellipse class="cls-12" cx="86.31" cy="409.46" rx="50.31" ry="39.69" transform="translate(-113.75 14.72) rotate(-12.89)"/><path class="cls-20" d="M92.9,438.2c-23.15,5.3-41.38,1.16-52.4-8.67,8.25,16,28,24.74,54.67,18.62s40.63-22.55,41.12-40.51C130.63,421.27,116,432.91,92.9,438.2Z" transform="translate(-24.59 -14.85)"/><path class="cls-34" d="M85.11,375.89c.23,1.49-2.16,3.1-5.33,3.59s-5.94-.34-6.17-1.83,2.16-3.11,5.34-3.6S84.88,374.39,85.11,375.89Z" transform="translate(-24.59 -14.85)"/><path class="cls-34" d="M111.25,377.1c-.29,1.21-2.61,1.69-5.18,1.06s-4.41-2.11-4.12-3.32,2.62-1.69,5.19-1.06S111.55,375.89,111.25,377.1Z" transform="translate(-24.59 -14.85)"/><path class="cls-34" d="M102.41,382c.1,2.16-3.53,4.07-8.1,4.28s-8.35-1.37-8.45-3.52,3.52-4.08,8.09-4.28S102.31,379.83,102.41,382Z" transform="translate(-24.59 -14.85)"/><path class="cls-5" d="M453.21,398.26c-8.09-5.53-32-17.27-41.29,5.05-10.8,25.84-16.25,41.59-4.91,52.48,12.19,11.73,27.54,3.27,54-13.91C485.68,425.88,461.67,404,453.21,398.26Z" transform="translate(-24.59 -14.85)"/><path class="cls-7" d="M459,429.89c-.95.26-6.29,2.8-5.87,4s6.54.67,7.5.41a2.44,2.44,0,0,0,1.56-2.9A3,3,0,0,0,459,429.89Z" transform="translate(-24.59 -14.85)"/><path class="cls-19" d="M459.19,430.89c-.66.18-4.87,1.95-4.62,2.66s4.89.05,5.55-.14a1.16,1.16,0,0,0,.72-1.59A1.42,1.42,0,0,0,459.19,430.89Z" transform="translate(-24.59 -14.85)"/><path class="cls-7" d="M424.6,401.48c-.74.48-4.78,4-4.15,4.9s5.7-1.4,6.45-1.89,1.36-1.89.72-2.71A2.61,2.61,0,0,0,424.6,401.48Z" transform="translate(-24.59 -14.85)"/><path class="cls-19" d="M425,402.22c-.52.33-3.74,3-3.38,3.44s4.16-1.39,4.69-1.73a1,1,0,0,0,.28-1.46A1.21,1.21,0,0,0,425,402.22Z" transform="translate(-24.59 -14.85)"/><path class="cls-7" d="M445,432c-.63.77-3.71,6.23-2.72,7.12s5.65-3.22,6.28-4a2.86,2.86,0,0,0-.22-3.51A2.58,2.58,0,0,0,445,432Z" transform="translate(-24.59 -14.85)"/><path class="cls-19" d="M445.61,432.79c-.44.55-3,4.62-2.41,5.13s4-2.81,4.43-3.36a1.37,1.37,0,0,0-.22-1.87A1.26,1.26,0,0,0,445.61,432.79Z" transform="translate(-24.59 -14.85)"/><path class="cls-7" d="M414.05,442.79c-.76.85-4.63,6.78-3.7,7.74s6.3-3.5,7.06-4.37,1.12-2.9.19-3.82S414.8,442,414.05,442.79Z" transform="translate(-24.59 -14.85)"/><path class="cls-19" d="M414.62,443.68c-.53.59-3.66,5-3.13,5.57s4.52-3.06,5-3.65a1.5,1.5,0,0,0,0-2A1.29,1.29,0,0,0,414.62,443.68Z" transform="translate(-24.59 -14.85)"/><path class="cls-7" d="M457.75,420.26c-.38.51-2.06,4.16-1.23,4.81s3.85-2,4.23-2.53a2,2,0,0,0-.54-2.45A1.94,1.94,0,0,0,457.75,420.26Z" transform="translate(-24.59 -14.85)"/><path class="cls-19" d="M458.32,420.85c-.27.36-1.7,3.07-1.22,3.44s2.66-1.78,2.92-2.14a1,1,0,0,0-.37-1.31A1,1,0,0,0,458.32,420.85Z" transform="translate(-24.59 -14.85)"/><path class="cls-7" d="M439,424.06c-.43.53-2.41,4.29-1.61,5s4.07-2.07,4.5-2.61a2,2,0,0,0-.37-2.52A2,2,0,0,0,439,424.06Z" transform="translate(-24.59 -14.85)"/><path class="cls-19" d="M439.54,424.66c-.3.38-2,3.18-1.51,3.56s2.85-1.84,3.15-2.22a1,1,0,0,0-.29-1.34A1,1,0,0,0,439.54,424.66Z" transform="translate(-24.59 -14.85)"/><path class="cls-7" d="M436.91,413.74c-.14.62-.22,4.62.75,4.84s2.54-3.41,2.67-4a1.91,1.91,0,0,0-1.37-2A1.84,1.84,0,0,0,436.91,413.74Z" transform="translate(-24.59 -14.85)"/><path class="cls-19" d="M437.62,414c-.1.44-.3,3.48.24,3.61s1.61-2.72,1.71-3.15a1,1,0,0,0-.81-1A.91.91,0,0,0,437.62,414Z" transform="translate(-24.59 -14.85)"/><path class="cls-7" d="M430.82,431.94c-.43.59-2.4,4.7-1.56,5.37s4.15-2.43,4.58-3a2.18,2.18,0,0,0-.43-2.66A2,2,0,0,0,430.82,431.94Z" transform="translate(-24.59 -14.85)"/><path class="cls-19" d="M431.38,432.56c-.3.41-1.95,3.48-1.47,3.86s2.89-2.12,3.19-2.53a1,1,0,0,0-.32-1.41A1,1,0,0,0,431.38,432.56Z" transform="translate(-24.59 -14.85)"/><path class="cls-7" d="M439.17,406.35c-.65.07-4.4,1.21-4.26,2.08s4.16,1.15,4.82,1.08a1.68,1.68,0,0,0,1.35-1.78A2,2,0,0,0,439.17,406.35Z" transform="translate(-24.59 -14.85)"/><path class="cls-19" d="M439.16,407c-.45,0-3.38.79-3.3,1.29s3.17.56,3.62.5a.8.8,0,0,0,.65-1A.92.92,0,0,0,439.16,407Z" transform="translate(-24.59 -14.85)"/><path class="cls-7" d="M429.57,420.48c-.53.43-3.25,3.67-2.62,4.44s4.4-1.25,4.94-1.69a1.93,1.93,0,0,0,.17-2.47A2,2,0,0,0,429.57,420.48Z" transform="translate(-24.59 -14.85)"/><path class="cls-19" d="M430,421.16c-.37.3-2.57,2.67-2.21,3.11s3.16-1.25,3.53-1.55a.94.94,0,0,0,0-1.33A1,1,0,0,0,430,421.16Z" transform="translate(-24.59 -14.85)"/><path class="cls-7" d="M415.18,420.82c-.33.62-1.61,4.72-.72,5.15s3.6-3,3.92-3.63a1.85,1.85,0,0,0-.79-2.31A2.07,2.07,0,0,0,415.18,420.82Z" transform="translate(-24.59 -14.85)"/><path class="cls-19" d="M415.81,421.27c-.23.43-1.36,3.53-.86,3.77s2.45-2.47,2.68-2.91a.91.91,0,0,0-.51-1.21A1,1,0,0,0,415.81,421.27Z" transform="translate(-24.59 -14.85)"/><path class="cls-7" d="M425.18,396.14c-.63.07-4.3,1.11-4.22,1.92s4,1.06,4.58,1a1.68,1.68,0,0,0,1.4-1.63A1.76,1.76,0,0,0,425.18,396.14Z" transform="translate(-24.59 -14.85)"/><path class="cls-19" d="M425.13,396.78c-.43,0-3.3.72-3.25,1.18s3,.52,3.46.47a.79.79,0,0,0,.68-.91A.82.82,0,0,0,425.13,396.78Z" transform="translate(-24.59 -14.85)"/><path class="cls-7" d="M427.48,410.27c-.41.49-2.28,4-1.51,4.53s3.85-2,4.26-2.53a1.75,1.75,0,0,0-.36-2.26A2,2,0,0,0,427.48,410.27Z" transform="translate(-24.59 -14.85)"/><path class="cls-19" d="M428,410.79c-.29.35-1.85,2.94-1.42,3.26s2.7-1.77,3-2.12a.84.84,0,0,0-.27-1.19A1,1,0,0,0,428,410.79Z" transform="translate(-24.59 -14.85)"/><path class="cls-7" d="M438.63,444c-.75.1-5.08,1.64-4.92,2.81s4.8,1.5,5.56,1.39a2.21,2.21,0,0,0,1.56-2.37A2.3,2.3,0,0,0,438.63,444Z" transform="translate(-24.59 -14.85)"/><path class="cls-19" d="M438.62,444.88c-.52.07-3.91,1.07-3.82,1.74s3.66.72,4.18.64a1.08,1.08,0,0,0,.76-1.32C439.64,445.28,439.13,444.8,438.62,444.88Z" transform="translate(-24.59 -14.85)"/><path class="cls-7" d="M424.58,447.75c-.63.48-4,4.19-3.34,5.19s5-1.16,5.62-1.65a2.56,2.56,0,0,0,.44-3A2.07,2.07,0,0,0,424.58,447.75Z" transform="translate(-24.59 -14.85)"/><path class="cls-19" d="M425,448.6c-.44.33-3.12,3-2.77,3.61s3.62-1.26,4.06-1.6a1.22,1.22,0,0,0,.14-1.61A1,1,0,0,0,425,448.6Z" transform="translate(-24.59 -14.85)"/><path class="cls-7" d="M419.33,430.52c-.49.56-2.85,4.5-2.08,5.21s4.36-2.14,4.85-2.7a2.12,2.12,0,0,0-.17-2.66A2,2,0,0,0,419.33,430.52Z" transform="translate(-24.59 -14.85)"/><path class="cls-19" d="M419.83,431.17c-.34.39-2.28,3.32-1.85,3.72s3.08-1.91,3.42-2.3a1,1,0,0,0-.17-1.41A1,1,0,0,0,419.83,431.17Z" transform="translate(-24.59 -14.85)"/><path class="cls-7" d="M415.08,410c-.46.47-2.7,3.84-2,4.44s4.06-1.81,4.53-2.3a1.72,1.72,0,0,0-.12-2.27A2,2,0,0,0,415.08,410Z" transform="translate(-24.59 -14.85)"/><path class="cls-19" d="M415.53,410.51c-.32.33-2.16,2.84-1.76,3.18s2.88-1.63,3.2-2a.83.83,0,0,0-.15-1.21A1,1,0,0,0,415.53,410.51Z" transform="translate(-24.59 -14.85)"/><path class="cls-7" d="M406.71,430.46c.05.73,1.19,5,2.24,4.87s1.56-4.7,1.5-5.42a1.88,1.88,0,0,0-2-1.53A2.27,2.27,0,0,0,406.71,430.46Z" transform="translate(-24.59 -14.85)"/><path class="cls-19" d="M407.53,430.49c0,.5.75,3.84,1.35,3.75s.81-3.57.78-4.07a.92.92,0,0,0-1.13-.75A1.09,1.09,0,0,0,407.53,430.49Z" transform="translate(-24.59 -14.85)"/><path class="cls-7" d="M447.69,420.08c-.19.64-.6,4.77.37,5.13s2.89-3.25,3.08-3.89a2.09,2.09,0,0,0-1.25-2.21A1.85,1.85,0,0,0,447.69,420.08Z" transform="translate(-24.59 -14.85)"/><path class="cls-19" d="M448.4,420.47c-.14.44-.6,3.58-.06,3.78s1.89-2.63,2-3.07a1,1,0,0,0-.74-1.15A.91.91,0,0,0,448.4,420.47Z" transform="translate(-24.59 -14.85)"/><path class="cls-20" d="M404.78,453.26a18,18,0,0,1-1.09-1.59l-.34-.54a19.11,19.11,0,0,1-1-2.09c-.1-.25-.18-.5-.27-.75-.18-.5-.35-1-.49-1.54-.08-.31-.17-.62-.23-.93-.13-.57-.23-1.16-.31-1.75s-.11-1-.15-1.45-.06-1-.07-1.49,0-.89,0-1.34,0-.82.06-1.24c.07-1,.17-2,.32-3.05,0-.23.05-.45.09-.68.1-.6.21-1.23.34-1.85q.08-.45.18-.9c.14-.66.28-1.32.45-2,0-.05,0-.1,0-.16.39-1.56.85-3.18,1.36-4.85l.06-.17c.26-.86.55-1.73.84-2.62-.89,11.06,1.24,18.67,8.87,23.65,13.54,8.85,26.59-1,48.32-20.14.79-.7,1.49-1.39,2.14-2.08a59.51,59.51,0,0,1-5.43-6.8,44.49,44.49,0,0,1-6.73-14.46l-.25-.18a23.35,23.35,0,0,1-1.77,9.82,25,25,0,0,1-6.5,9.4,25.17,25.17,0,0,1,2-12.1,23.27,23.27,0,0,1,5.3-7.8,26.68,26.68,0,0,1-10,3.67A29.43,29.43,0,0,1,429,405a27.24,27.24,0,0,1,11.19-4.34l1.14-.16a50.87,50.87,0,0,1-8.23-2.12A43.65,43.65,0,0,1,421,392.08a16.65,16.65,0,0,1,4.23-1.65,48.7,48.7,0,0,1,11.3,2.43,50.88,50.88,0,0,1,7.63,3.32c2.59,1,5.84,2,6.87,1.35a2.7,2.7,0,0,0,.45-.4c.64.4,1.22.78,1.74,1.13s1.05.73,1.63,1.17a2.68,2.68,0,0,0-.28.52c-.51,1.37,2.64,5,4.72,7.2.51.5,1,1,1.51,1.54l.18.18-.05,0a54.87,54.87,0,0,1,4.51,5.51c.86,1.2,1.66,2.43,2.41,3.66a16.24,16.24,0,0,0,1-3c.45.85.87,1.7,1.23,2.58h0a19.89,19.89,0,0,1,1.67,8.24v0a15.58,15.58,0,0,1-.72,4.33h0a16.35,16.35,0,0,1-1.13,2.65l-.23.45c-.19.33-.4.65-.61,1s-.28.43-.43.64-.43.59-.66.88-.41.5-.63.75-.46.53-.71.79-.56.57-.86.85l-.73.7c-.38.33-.78.66-1.19,1-.23.19-.45.37-.69.55-.67.52-1.39,1-2.16,1.52-26.47,17.18-41.82,25.64-54,13.91a21.39,21.39,0,0,1-1.78-1.94Z" transform="translate(-24.59 -14.85)"/><path class="cls-21" d="M438.37,390.39a50.43,50.43,0,0,1,7.57,3.25c2.56,1,5.78,2,6.8,1.32,1.79-1.19,3.83-7,3.83-7s.78-.3,3.1,1.2l.53.35c2.36,1.52,2.29,2.29,2.29,2.29s-5.52,3.56-6.23,5.49c-.5,1.34,2.64,4.89,4.71,7,.51.49,1,1,1.51,1.52l.18.17-.05,0a58.11,58.11,0,0,1,4.49,5.38,51.67,51.67,0,0,1,8.41,17.33,54.45,54.45,0,0,1-15.29-14.84,43.84,43.84,0,0,1-6.74-14.13l-.25-.18a22.35,22.35,0,0,1-1.69,9.6,24.19,24.19,0,0,1-6.35,9.18,24.37,24.37,0,0,1,1.89-11.81,22.46,22.46,0,0,1,5.18-7.63,26.7,26.7,0,0,1-9.85,3.59,29.53,29.53,0,0,1-11.43-.24A27,27,0,0,1,442,398l1.13-.15a50.82,50.82,0,0,1-8.15-2.08,41.35,41.35,0,0,1-14.05-7.86A45.15,45.15,0,0,1,438.37,390.39Z" transform="translate(-24.59 -14.85)"/></g></g></svg>